<?xml version="1.0" standalone="no"?>
<!DOCTYPE svg PUBLIC "-//W3C//DTD SVG 20010904//EN"
 "http://www.w3.org/TR/2001/REC-SVG-20010904/DTD/svg10.dtd">
<svg version="1.0" xmlns="http://www.w3.org/2000/svg"
 width="512.000000pt" height="512.000000pt" viewBox="0 0 512.000000 512.000000"
 preserveAspectRatio="xMidYMid meet">
<metadata>
Created by potrace 1.11, written by Peter Selinger 2001-2013
</metadata>
<g transform="translate(0.000000,512.000000) scale(0.100000,-0.100000)"
fill="#000000" stroke="none">
<path d="M4539 5116 c-2 -2 -31 -7 -64 -10 -321 -31 -774 -192 -1185 -421
-299 -167 -680 -451 -944 -705 -144 -139 -343 -343 -466 -481 -122 -136 -158
-171 -169 -165 -35 22 -367 28 -466 8 -33 -6 -74 -14 -92 -17 -92 -15 -300
-100 -413 -168 -106 -64 -210 -155 -436 -381 -299 -299 -328 -342 -289 -439
11 -27 81 -64 165 -86 69 -18 102 -25 185 -37 17 -2 44 -7 60 -9 17 -3 50 -8
75 -11 79 -10 303 -44 365 -55 l60 -10 1 -112 c1 -96 5 -122 28 -181 14 -38
40 -91 56 -118 34 -55 35 -58 16 -58 -7 0 -51 -19 -96 -41 -58 -29 -103 -61
-150 -108 -196 -195 -381 -627 -374 -876 4 -146 47 -225 148 -275 60 -30 75
-33 159 -33 137 -1 247 22 403 84 71 28 220 97 239 111 6 4 51 35 101 68 145
95 231 198 275 333 l21 65 53 -23 c71 -32 186 -51 263 -45 57 5 63 3 67 -15
15 -79 51 -309 61 -395 2 -19 6 -46 9 -60 3 -14 7 -45 10 -70 3 -25 12 -79 20
-120 49 -246 119 -304 260 -219 50 30 349 317 495 475 108 118 197 259 281
449 14 31 59 196 65 235 3 19 7 42 11 50 10 28 11 325 1 399 l-10 75 38 34
c459 406 764 728 1020 1079 342 468 585 988 679 1448 35 172 44 271 40 430 -7
323 -80 393 -416 401 -85 3 -157 3 -160 0z"/>
</g>
</svg>
